<?xml version="1.0" encoding="iso-8859-1"?>
<!-- Uploaded to: SVG Repo, www.svgrepo.com, Generator: SVG Repo Mixer Tools -->
<svg fill="#000000" height="800px" width="800px" version="1.1" id="Layer_1" xmlns="http://www.w3.org/2000/svg" xmlns:xlink="http://www.w3.org/1999/xlink" 
	 viewBox="0 0 511.855 511.855" xml:space="preserve">
<g>
	<g>
		<path d="M509.355,153.358l-24.141-24.141l-48.265,48.273c-1.673,1.664-3.857,2.5-6.033,2.5c-2.185,0-4.369-0.836-6.033-2.5
			c-3.337-3.337-3.337-8.738,0-12.066l48.265-48.273l-18.099-18.108L418.85,135.25c-1.673,1.664-3.857,2.5-6.033,2.5
			c-2.185,0-4.369-0.836-6.042-2.5c-3.328-3.337-3.328-8.738,0-12.066l36.207-36.207l-18.108-18.099l-72.405,72.405
			c-1.664,1.664-3.849,2.5-6.033,2.5c-2.185,0-4.369-0.836-6.033-2.5c-3.328-3.337-3.328-8.738,0-12.066l72.405-72.405
			L358.502,2.506c-3.328-3.336-8.73-3.336-12.066,0L2.5,346.442c-1.596,1.596-2.5,3.763-2.5,6.033c0,2.261,0.905,4.429,2.5,6.033
			l24.132,24.132l108.621-108.612c3.328-3.328,8.73-3.328,12.066,0c3.328,3.337,3.328,8.738,0,12.066L38.707,394.706l18.099,18.108
			l78.447-78.438c3.328-3.337,8.73-3.337,12.066,0c3.328,3.328,3.328,8.73,0,12.066L68.873,424.88l18.108,18.099l36.198-36.198
			c3.337-3.336,8.738-3.336,12.066,0c3.337,3.337,3.337,8.73,0,12.066l-36.198,36.198l18.099,18.108l78.438-78.438
			c3.337-3.337,8.738-3.337,12.075,0c3.328,3.337,3.328,8.73,0,12.066l-78.447,78.438l24.141,24.132
			c1.664,1.673,3.849,2.5,6.033,2.5c2.185,0,4.369-0.828,6.033-2.5l343.936-343.927c1.596-1.604,2.5-3.772,2.5-6.033
			C511.855,157.121,510.95,154.954,509.355,153.358z M376.61,153.358c3.328-3.337,8.73-3.337,12.066,0
			c3.337,3.328,3.337,8.73,0,12.066l-42.24,42.231c-1.664,1.664-3.849,2.5-6.033,2.5c-2.185,0-4.369-0.836-6.033-2.5
			c-3.328-3.337-3.328-8.73,0-12.066L376.61,153.358z M286.097,123.184l54.306-54.306c3.336-3.328,8.738-3.328,12.066,0
			c3.336,3.336,3.336,8.738,0,12.066l-54.306,54.306c-1.664,1.664-3.849,2.5-6.033,2.5c-2.176,0-4.361-0.836-6.033-2.5
			C282.769,131.914,282.769,126.512,286.097,123.184z M328.337,165.424l-48.273,48.265c-1.664,1.664-3.849,2.5-6.033,2.5
			c-2.185,0-4.369-0.836-6.033-2.5c-3.337-3.337-3.337-8.73,0-12.066l48.273-48.265c3.328-3.337,8.73-3.337,12.066,0
			C331.665,156.686,331.665,162.087,328.337,165.424z M177.485,231.796l78.447-78.438c3.328-3.337,8.73-3.337,12.066,0
			c3.328,3.328,3.328,8.73,0,12.066l-78.447,78.438c-1.664,1.664-3.849,2.5-6.033,2.5c-2.176,0-4.361-0.836-6.033-2.5
			C174.157,240.534,174.157,235.133,177.485,231.796z M196.13,347.03c2.807,3.388,2.568,8.363-0.546,11.477l-24.132,24.132
			c-1.664,1.664-3.849,2.5-6.033,2.5c-2.185,0-4.369-0.836-6.033-2.5c-3.337-3.337-3.337-8.738,0-12.066l19.089-19.089
			c-12.902-21.811-8.713-51.618,5.043-65.391l54.306-54.298c3.337-3.337,8.738-3.337,12.066,0c3.336,3.337,3.336,8.738,0,12.066
			l-54.306,54.298C187.008,306.753,183.364,331.602,196.13,347.03z M207.659,334.367c-6.664-6.665-6.664-17.468,0-24.132
			c6.665-6.665,17.468-6.665,24.132,0s6.665,17.468,0,24.132S214.323,341.032,207.659,334.367z M255.932,358.508l-18.108,18.099
			c-1.664,1.664-3.849,2.5-6.033,2.5c-2.185,0-4.369-0.836-6.033-2.5c-3.337-3.337-3.337-8.738,0-12.066l18.108-18.099
			c16.008-16.017,16.008-32.265-0.009-48.282c-3.328-3.328-3.328-8.73,0.009-12.066l60.331-60.331c3.337-3.337,8.738-3.337,12.075,0
			c3.328,3.337,3.328,8.738,0,12.066l-54.648,54.639C278.4,313.725,276.506,337.934,255.932,358.508z M364.535,249.895
			l-60.339,60.339c-1.664,1.664-3.849,2.492-6.033,2.492c-2.176,0-4.36-0.828-6.033-2.492c-3.328-3.337-3.328-8.738,0-12.075
			l60.339-60.331c3.336-3.328,8.738-3.328,12.066,0C367.872,241.166,367.872,246.567,364.535,249.895z M406.775,207.655
			l-12.066,12.066c-1.664,1.664-3.849,2.5-6.033,2.5c-2.185,0-4.369-0.836-6.033-2.5c-3.337-3.336-3.337-8.73,0-12.066
			l12.066-12.066c3.337-3.336,8.73-3.336,12.066,0C410.112,198.926,410.112,204.319,406.775,207.655z"/>
	</g>
</g>
</svg>