<?xml version="1.0" encoding="iso-8859-1"?>
<!-- Uploaded to: SVG Repo, www.svgrepo.com, Generator: SVG Repo Mixer Tools -->
<svg fill="#000000" height="800px" width="800px" version="1.1" id="Layer_1" xmlns="http://www.w3.org/2000/svg" xmlns:xlink="http://www.w3.org/1999/xlink" 
	 viewBox="0 0 512 512" xml:space="preserve">
<g>
	<g>
		<path d="M104.789,232.96c-1.109-0.521-2.389,0.375-2.389,1.596v42.889c0,1.22,1.28,2.116,2.389,1.596
			c8.653-4.104,14.677-12.843,14.677-23.04S113.442,237.065,104.789,232.96z"/>
	</g>
</g>
<g>
	<g>
		<path d="M82.944,232.96c-8.653,4.104-14.677,12.843-14.677,23.04s6.025,18.935,14.677,23.04c1.109,0.521,2.389-0.375,2.389-1.596
			v-42.889C85.333,233.335,84.053,232.439,82.944,232.96z"/>
	</g>
</g>
<g>
	<g>
		<path d="M503.467,196.267h-179.2c-4.71,0-8.533,3.823-8.533,8.533v25.6c0,4.71-3.823,8.533-8.533,8.533H204.8
			c-4.71,0-8.533-3.823-8.533-8.533v-25.6c0-4.71-3.823-8.533-8.533-8.533H8.533C3.823,196.267,0,200.09,0,204.8v102.4
			c0,4.71,3.823,8.533,8.533,8.533h494.933c4.71,0,8.533-3.823,8.533-8.533V204.8C512,200.09,508.177,196.267,503.467,196.267z
			 M93.867,298.667C70.34,298.667,51.2,279.526,51.2,256s19.14-42.667,42.667-42.667c23.526,0,42.667,19.14,42.667,42.667
			S117.393,298.667,93.867,298.667z"/>
	</g>
</g>
<g>
	<g>
		<path d="M294.4,204.8h-8.533c-2.355,0-4.267,1.911-4.267,4.267v8.533c0,2.355,1.911,4.267,4.267,4.267h8.533
			c2.355,0,4.267-1.911,4.267-4.267v-8.533C298.667,206.711,296.755,204.8,294.4,204.8z"/>
	</g>
</g>
<g>
	<g>
		<path d="M260.267,204.8h-8.533c-2.355,0-4.267,1.911-4.267,4.267v8.533c0,2.355,1.911,4.267,4.267,4.267h8.533
			c2.355,0,4.267-1.911,4.267-4.267v-8.533C264.533,206.711,262.622,204.8,260.267,204.8z"/>
	</g>
</g>
<g>
	<g>
		<path d="M226.133,204.8H217.6c-2.355,0-4.267,1.911-4.267,4.267v8.533c0,2.355,1.911,4.267,4.267,4.267h8.533
			c2.355,0,4.267-1.911,4.267-4.267v-8.533C230.4,206.711,228.489,204.8,226.133,204.8z"/>
	</g>
</g>
</svg>