<?xml version="1.0" ?><svg data-name="Layer 1" id="Layer_1" viewBox="0 0 64 64" xmlns="http://www.w3.org/2000/svg"><title/><path d="M54.25,55.25H9.75a1,1,0,0,1-1-1V9.75a1,1,0,0,1,1-1h44.5a1,1,0,0,1,1,1v44.5A1,1,0,0,1,54.25,55.25Zm-43.5-2h42.5V10.75H10.75Z"/><path d="M14.07,51.29a1,1,0,0,1-.71-.3,1,1,0,0,1,0-1.41L27.44,35.5H20a1,1,0,0,1,0-2h9.88a1,1,0,0,1,.93.62,1,1,0,0,1-.22,1.09L14.78,51A1,1,0,0,1,14.07,51.29Z"/><path d="M30.52,45.61a1,1,0,0,1-1-.94l-.66-10.1a1,1,0,1,1,2-.13l.67,10.1a1,1,0,0,1-.94,1.06Z"/><path d="M43,30.26H33.86a1,1,0,0,1-.7-1.71L47.76,14a1,1,0,0,1,1.41,0,1,1,0,0,1,0,1.42L36.28,28.26H43a1,1,0,0,1,0,2Z"/><path d="M33.86,30.26a1,1,0,0,1-1-.93L32.25,20a1,1,0,0,1,2-.13l.61,9.35a1,1,0,0,1-.93,1.06Z"/></svg>